<svg xmlns="http://www.w3.org/2000/svg" viewBox="0 0 32 32">
  <defs>
    <linearGradient id="g" x1="0%" y1="0%" x2="100%" y2="100%">
      <stop offset="0%" stop-color="#8B5CF6"/>
      <stop offset="100%" stop-color="#EC4899"/>
    </linearGradient>
  </defs>
  <circle cx="16" cy="16" r="15" fill="url(#g)"/>
  <path d="M16 6c-4.4 0-8 2.7-8 7 0 2.2 1 3.8 2.2 5C11.5 19.5 12 21 12 22h8c0-1 .5-2.5 1.8-4 1.2-1.2 2.2-2.8 2.2-5 0-4.3-3.6-7-8-7zm-1 17h2v1h-2v-1zm-1-1h4c.2-.8.6-1.6 1.2-2.3 1-1 1.8-2.3 1.8-3.7 0-3.3-2.7-5.5-6-5.5S10 12.7 10 16c0 1.4.8 2.7 1.8 3.7.6.7 1 1.5 1.2 2.3z" fill="white" opacity="0.95"/>
</svg>
